<?xml version="1.0" standalone="no"?>
<!DOCTYPE svg PUBLIC "-//W3C//DTD SVG 1.1//EN" "http://www.w3.org/Graphics/SVG/1.1/DTD/svg11.dtd" >
<svg xmlns="http://www.w3.org/2000/svg">
<metadata>Generated by IcoMoon</metadata>
<defs>
<font id="icomoon" horiz-adv-x="1024">
<font-face units-per-em="1024" ascent="1194.6666666666665" descent="170.66666666666663" />
<missing-glyph horiz-adv-x="1024" />
<glyph unicode="&#x20;" horiz-adv-x="0" d="" />
<glyph unicode="&#xe904;" glyph-name="newspaper" d="M896 960v128h-896v-704c0-35.346 28.654-64 64-64h864c53.022 0 96 42.978 96 96v544h-128zM832 384h-768v640h768v-640zM128 896h640v-64h-640zM512 768h256v-64h-256zM512 640h256v-64h-256zM512 512h192v-64h-192zM128 768h320v-320h-320z" />
<glyph unicode="&#xe90f;" glyph-name="camera1" d="M304 608c0-114.876 93.124-208 208-208s208 93.124 208 208-93.124 208-208 208-208-93.124-208-208zM960 960h-224c-16 64-32 128-96 128h-256c-64 0-80-64-96-128h-224c-35.2 0-64-28.8-64-64v-576c0-35.2 28.8-64 64-64h896c35.2 0 64 28.8 64 64v576c0 35.2-28.8 64-64 64zM512 324c-156.85 0-284 127.148-284 284 0 156.85 127.15 284 284 284 156.852 0 284-127.15 284-284 0-156.852-127.146-284-284-284zM960 768h-128v64h128v-64z" />
<glyph unicode="&#xe920;" glyph-name="books" horiz-adv-x="1152" d="M224 1088h-192c-17.6 0-32-14.4-32-32v-704c0-17.6 14.4-32 32-32h192c17.6 0 32 14.4 32 32v704c0 17.6-14.4 32-32 32zM192 896h-128v64h128v-64zM544 1088h-192c-17.6 0-32-14.4-32-32v-704c0-17.6 14.4-32 32-32h192c17.6 0 32 14.4 32 32v704c0 17.6-14.4 32-32 32zM512 896h-128v64h128v-64zM765.088 1038.52l-171.464-86.394c-15.716-7.918-22.096-27.258-14.178-42.976l287.978-571.548c7.918-15.718 27.258-22.098 42.976-14.178l171.464 86.392c15.716 7.92 22.096 27.26 14.178 42.974l-287.978 571.55c-7.92 15.718-27.26 22.1-42.976 14.18z" />
<glyph unicode="&#xe936;" glyph-name="price-tags" horiz-adv-x="1280" d="M1232 1216h-384c-26.4 0-63.274-15.274-81.942-33.942l-476.116-476.116c-18.668-18.668-18.668-49.214 0-67.882l412.118-412.118c18.668-18.668 49.214-18.668 67.882 0l476.118 476.118c18.666 18.666 33.94 55.54 33.94 81.94v384c0 26.4-21.6 48-48 48zM992 832c-53.020 0-96 42.98-96 96s42.98 96 96 96 96-42.98 96-96-42.98-96-96-96zM128 672l544 544h-80c-26.4 0-63.274-15.274-81.942-33.942l-476.116-476.116c-18.668-18.668-18.668-49.214 0-67.882l412.118-412.118c18.668-18.668 49.214-18.668 67.882 0l30.058 30.058-416 416z" />
<glyph unicode="&#xe986;" glyph-name="search" d="M992.262 344.604l-242.552 206.294c-25.074 22.566-51.89 32.926-73.552 31.926 57.256 67.068 91.842 154.078 91.842 249.176 0 212.078-171.922 384-384 384-212.076 0-384-171.922-384-384s171.922-384 384-384c95.098 0 182.108 34.586 249.176 91.844-1-21.662 9.36-48.478 31.926-73.552l206.294-242.552c35.322-39.246 93.022-42.554 128.22-7.356s31.892 92.898-7.354 128.22zM384 576c-141.384 0-256 114.616-256 256s114.616 256 256 256 256-114.616 256-256-114.614-256-256-256z" />
<glyph unicode="&#xea82;" glyph-name="share2" d="M864 512c-45.16 0-85.92-18.738-115.012-48.83l-431.004 215.502c1.314 8.252 2.016 16.706 2.016 25.328s-0.702 17.076-2.016 25.326l431.004 215.502c29.092-30.090 69.852-48.828 115.012-48.828 88.366 0 160 71.634 160 160s-71.634 160-160 160-160-71.634-160-160c0-8.622 0.704-17.076 2.016-25.326l-431.004-215.504c-29.092 30.090-69.852 48.83-115.012 48.83-88.366 0-160-71.636-160-160 0-88.368 71.634-160 160-160 45.16 0 85.92 18.738 115.012 48.828l431.004-215.502c-1.312-8.25-2.016-16.704-2.016-25.326 0-88.368 71.634-160 160-160s160 71.632 160 160c0 88.364-71.634 160-160 160z" />
<glyph unicode="&#xf004;" glyph-name="heart" horiz-adv-x="1365" d="M1222.4 998.819c-154.133 129.6-392.267 110.133-539.733-40-147.467 150.133-385.6 169.867-539.733 40-200.533-168.8-171.2-444-28.267-589.867l467.733-476.533c26.667-27.2 62.4-42.4 100.267-42.4 38.133 0 73.6 14.933 100.267 42.133l467.733 476.533c142.667 145.867 172.533 421.067-28.267 590.133zM1159.467 498.819l-467.733-476.533c-6.4-6.4-11.733-6.4-18.133 0l-467.733 476.533c-97.333 99.2-117.067 286.933 19.467 401.867 103.733 87.2 263.733 74.133 364-28l93.333-95.2 93.333 95.2c100.8 102.667 260.8 115.2 364 28.267 136.267-114.933 116-303.733 19.467-402.133z" />
<glyph unicode="&#xf015;" glyph-name="home" horiz-adv-x="1536" d="M1301.333 507.086v-382.133c0-35.467-28.533-64-64-64h-309.333c-17.6 0-32 14.4-32 32v298.667c0 17.6-14.4 32-32 32h-192c-17.6 0-32-14.4-32-32v-298.667c0-17.6-14.4-32-32-32h-309.333c-35.467 0-64 28.533-64 64v382.133c0 9.6 4.267 18.667 11.733 24.8l501.333 412.8c11.733 9.6 28.8 9.6 40.8 0l501.333-412.8c7.2-6.133 11.467-15.2 11.467-24.8zM1524.267 669.486l-222.933 183.733v369.333c0 17.6-14.4 32-32 32h-149.333c-17.6 0-32-14.4-32-32v-193.6l-238.667 196.533c-47.2 38.933-115.467 38.933-162.667 0l-674.933-556c-13.6-11.2-15.467-31.467-4.267-45.067l68-82.667c11.2-13.6 31.467-15.467 45.067-4.267l627.2 516.533c11.733 9.6 28.8 9.6 40.8 0l627.2-516.533c13.6-11.2 33.867-9.333 45.067 4.267l68 82.667c11.2 13.867 9.067 33.867-4.533 45.067z" />
<glyph unicode="&#xf06e;" glyph-name="eye" horiz-adv-x="1536" d="M1518.277 552.603c-150.357 255.152-430.784 425.683-750.277 425.683-319.627 0-599.989-170.651-750.277-425.683-11.138-18.593-17.724-41.020-17.724-64.985s6.586-46.392 18.047-65.57l-0.324 0.584c150.36-255.149 430.784-425.68 750.277-425.68 319.627 0 599.989 170.651 750.277 425.683 11.138 18.593 17.724 41.019 17.724 64.984s-6.586 46.391-18.048 65.568l0.324-0.584zM768 124.953c-273.483 0-512.243 145.869-640 362.667 117.752 199.821 329.805 339.387 576.432 360.019 26.123-26.893 42.235-63.565 42.235-104.019 0-82.475-66.859-149.333-149.333-149.333s-149.333 66.859-149.333 149.333l0.003 0.112c-27.219-50.893-42.669-109.029-42.669-170.779 0-200.296 162.371-362.667 362.667-362.667s362.667 162.371 362.667 362.667c0 82.749-27.733 159.011-74.387 220.040 148.264-61.741 271.744-169.656 351.72-305.373-127.755-216.797-366.517-362.667-640-362.667z" />
<glyph unicode="&#xf08c;" glyph-name="linkedin" horiz-adv-x="1195" d="M1109.333 1084.953h-1024.267c-46.933 0-85.067-38.667-85.067-86.133v-1022.4c0-47.467 38.133-86.133 85.067-86.133h1024.267c46.933 0 85.333 38.667 85.333 86.133v1022.4c0 47.467-38.4 86.133-85.333 86.133zM361.067 60.953h-177.067v570.133h177.333v-570.133zM272.533 708.953c-56.8 0-102.667 46.133-102.667 102.667s45.867 102.667 102.667 102.667c56.533 0 102.667-46.133 102.667-102.667 0-56.8-45.867-102.667-102.667-102.667zM1024.8 60.953h-177.067v277.333c0 66.133-1.333 151.2-92 151.2-92.267 0-106.4-72-106.4-146.4v-282.133h-177.067v570.133h169.867v-77.867h2.4c23.733 44.8 81.6 92 167.733 92 179.2 0 212.533-118.133 212.533-271.733v-312.533z" />
<glyph unicode="&#xf099;" glyph-name="twitter" horiz-adv-x="1365" d="M1224.987 765.71c0.867-12.128 0.867-24.259 0.867-36.387 0-369.92-281.555-796.155-796.155-796.155-158.539 0-305.813 45.917-429.699 125.616 22.525-2.597 44.181-3.464 67.573-3.464 130.813 0 251.235 44.181 347.397 119.552-123.019 2.6-226.112 83.168-261.632 194.059 17.328-2.597 34.653-4.331 52.848-4.331 25.123 0 50.248 3.467 73.637 9.528-128.216 25.992-224.381 138.613-224.381 274.627v3.464c37.251-20.792 80.571-33.787 126.483-35.517-75.371 50.248-124.749 136.013-124.749 233.043 0 51.979 13.859 99.627 38.117 141.211 137.747-169.8 344.8-280.688 576.973-292.819-4.331 20.792-6.931 42.448-6.931 64.107 0 154.208 124.752 279.824 279.824 279.824 80.568 0 153.339-33.787 204.453-88.365 63.24 12.128 123.883 35.52 177.597 67.573-20.795-64.976-64.976-119.555-123.019-154.205 56.312 6.061 110.891 21.659 161.136 43.315-38.112-55.443-85.763-104.821-140.341-144.675z" />
<glyph unicode="&#xf09a;" glyph-name="facebook" horiz-adv-x="1195" d="M1194.667 1019.086v-1062.667c0-36.533-29.6-65.867-65.867-65.867h-304.533v462.4h155.2l23.2 180.267h-178.667v115.2c0 52.267 14.4 87.733 89.333 87.733h95.467v161.333c-16.533 2.133-73.067 7.2-139.2 7.2-137.6 0-232-84-232-238.4v-133.067h-155.733v-180.267h155.733v-462.667h-571.733c-36.267 0-65.867 29.6-65.867 65.867v1062.933c0 36.267 29.6 65.867 65.867 65.867h1062.667c36.533 0 66.133-29.6 66.133-65.867z" />
<glyph unicode="&#xf09e;" glyph-name="rss" horiz-adv-x="1195" d="M341.549 231.729c0-94.317-76.459-170.776-170.776-170.776s-170.773 76.459-170.773 170.776 76.459 170.776 170.776 170.776 170.773-76.461 170.773-170.776zM809.976 105.729c-22.277 412.267-352.493 742.899-765.2 765.2-24.36 1.317-44.776-18.256-44.776-42.651v-128.184c0-22.44 17.307-41.259 39.699-42.715 298.219-19.424 537.261-257.872 556.725-556.725 1.459-22.392 20.277-39.699 42.715-39.699h128.184c24.397-0.003 43.971 20.413 42.653 44.773zM1194.64 104.961c-22.384 623.52-524.067 1128.139-1150.632 1150.632-24.080 0.864-44.008-18.589-44.008-42.683v-128.181c0-23 18.227-41.72 41.208-42.664 509.811-20.904 919.005-430.176 939.907-939.907 0.941-22.981 19.661-41.208 42.664-41.208h128.181c24.091 0.003 43.544 19.931 42.68 44.011z" />
<glyph unicode="&#xf0e0;" glyph-name="envelope" horiz-adv-x="1365" d="M1237.333 999.619h-1109.333c-70.693 0-128-57.307-128-128v-768c0-70.693 57.307-128 128-128h1109.333c70.693 0 128 57.307 128 128v768c0 70.693-57.307 128-128 128zM1237.333 871.619v-108.813c-59.792-48.691-155.115-124.403-358.899-283.973-44.909-35.325-133.869-120.192-195.768-119.203-61.888-1-150.877 83.891-195.768 119.203-203.752 159.547-299.099 235.275-358.899 283.973v108.813h1109.333zM128 103.619v494.939c61.104-48.669 147.757-116.965 279.835-220.389 58.285-45.88 160.357-147.163 274.832-146.547 113.912-0.616 214.691 99.197 274.808 146.525 132.075 103.421 218.752 171.736 279.859 220.408v-494.936h-1109.333z" />
<glyph unicode="&#xf167;" glyph-name="youtube" horiz-adv-x="1536" d="M1465.747 839.398c-16.749 63.067-66.099 112.736-128.757 129.592-113.573 30.629-568.989 30.629-568.989 30.629s-455.413 0-568.989-30.629c-62.659-16.859-112.008-66.525-128.757-129.592-30.432-114.312-30.432-352.813-30.432-352.813s0-238.501 30.432-352.813c16.749-63.067 66.099-110.667 128.757-127.523 113.576-30.629 568.989-30.629 568.989-30.629s455.413 0 568.989 30.629c62.659 16.856 112.008 64.456 128.757 127.523 30.432 114.312 30.432 352.813 30.432 352.813s0 238.501-30.432 352.813zM619.053 270.043v433.083l380.637-216.547-380.637-216.536z" />
<glyph unicode="&#xf16d;" glyph-name="instagram" horiz-adv-x="1195" d="M597.6 794.286c-169.6 0-306.4-136.8-306.4-306.4s136.8-306.4 306.4-306.4 306.4 136.8 306.4 306.4-136.8 306.4-306.4 306.4zM597.6 288.686c-109.6 0-199.2 89.333-199.2 199.2s89.333 199.2 199.2 199.2 199.2-89.333 199.2-199.2-89.6-199.2-199.2-199.2zM988 806.819c0-39.733-32-71.467-71.467-71.467-39.733 0-71.467 32-71.467 71.467s32 71.467 71.467 71.467 71.467-32 71.467-71.467zM1190.933 734.286c-4.533 95.733-26.4 180.533-96.533 250.4-69.867 69.867-154.667 91.733-250.4 96.533-98.667 5.6-394.4 5.6-493.067 0-95.467-4.533-180.267-26.4-250.4-96.267s-91.733-154.667-96.533-250.4c-5.6-98.667-5.6-394.4 0-493.067 4.533-95.733 26.4-180.533 96.533-250.4s154.667-91.733 250.4-96.533c98.667-5.6 394.4-5.6 493.067 0 95.733 4.533 180.533 26.4 250.4 96.533 69.867 69.867 91.733 154.667 96.533 250.4 5.6 98.667 5.6 394.133 0 492.8zM1063.467 135.619c-20.8-52.267-61.067-92.533-113.6-113.6-78.667-31.2-265.333-24-352.267-24s-273.867-6.933-352.267 24c-52.267 20.8-92.533 61.067-113.6 113.6-31.2 78.667-24 265.333-24 352.267s-6.933 273.867 24 352.267c20.8 52.267 61.067 92.533 113.6 113.6 78.667 31.2 265.333 24 352.267 24s273.867 6.933 352.267-24c52.267-20.8 92.533-61.067 113.6-113.6 31.2-78.667 24-265.333 24-352.267s7.2-273.867-24-352.267z" />
<glyph unicode="&#xf16e;" glyph-name="flickr" horiz-adv-x="1195" d="M1066.667 1084.953h-938.667c-70.667 0-128-57.333-128-128v-938.667c0-70.667 57.333-128 128-128h938.667c70.667 0 128 57.333 128 128v938.667c0 70.667-57.333 128-128 128zM385.333 319.619c-93.6 0-169.333 75.733-169.333 169.333s75.733 169.333 169.333 169.333 169.333-75.733 169.333-169.333-75.733-169.333-169.333-169.333zM809.333 319.619c-93.6 0-169.333 75.733-169.333 169.333s75.733 169.333 169.333 169.333 169.333-75.733 169.333-169.333-75.733-169.333-169.333-169.333z" />
<glyph unicode="&#xf1a4;" glyph-name="stumbleupon" horiz-adv-x="1365" d="M1341.067 460.953v-185.867c0-165.6-134.133-299.733-299.733-299.733-164.8 0-299.733 132.8-299.733 296.8v187.2l91.467-42.667 136.267 40.533v-188.267c0-39.2 32-70.667 71.2-70.667s71.467 31.467 71.467 70.667v192h229.067zM741.867 616.153l91.467-42.667 136.267 40.533v94.933c0 161.333-136.267 290.667-298.933 290.667-162.133 0-298.933-128.533-298.933-288.533v-433.067c0-39.733-32-71.2-71.2-71.2s-71.2 31.467-71.2 71.2v182.933h-229.333v-185.867c0-165.333 134.133-299.467 299.733-299.467 164.267 0 299.733 132 299.733 295.467v427.467c0 39.2 32 71.2 71.2 71.2s71.2-32 71.2-71.2v-82.4z" />
<glyph unicode="&#xf231;" glyph-name="pinterest-p" d="M544 1152.953c-273.6 0-544-182.4-544-477.6 0-187.733 105.6-294.4 169.6-294.4 26.4 0 41.6 73.6 41.6 94.4 0 24.8-63.2 77.6-63.2 180.8 0 214.4 163.2 366.4 374.4 366.4 181.6 0 316-103.2 316-292.8 0-141.6-56.8-407.2-240.8-407.2-66.4 0-123.2 48-123.2 116.8 0 100.8 70.4 198.4 70.4 302.4 0 176.533-250.4 144.533-250.4-68.8 0-44.8 5.6-94.4 25.6-135.2-36.8-158.4-112-394.4-112-557.6 0-50.4 7.2-100 12-150.4 9.067-10.133 4.533-9.067 18.4-4 134.4 184 129.6 220 190.4 460.8 32.8-62.4 117.6-96 184.8-96 283.2 0 410.4 276 410.4 524.8 0 264.8-228.8 437.6-480 437.6z" />
<glyph unicode="&#xf23a;" glyph-name="medium" horiz-adv-x="1195" d="M0 1084.953v-1194.667h1194.667v1194.667h-1194.667zM992.533 802.019l-64-61.333c-5.6-4.267-8.267-11.2-7.2-17.867v-451.467c-1.067-6.933 1.6-13.867 7.2-17.867l62.667-61.333v-13.6h-314.667v13.067l64.8 62.933c6.4 6.4 6.4 8.267 6.4 17.867v365.067l-180.267-457.6h-24.267l-209.867 457.6v-306.667c-1.867-12.8 2.667-25.867 11.733-35.2l84.267-102.133v-13.6h-239.467v13.6l84.267 102.133c9.067 9.333 13.067 22.4 10.933 35.2v354.667c1.067 9.867-2.667 19.467-10.133 26.133l-74.933 90.4v13.6h232.8l179.733-394.667 158.133 394.4h221.867v-13.333z" />
<glyph unicode="&#xf259;" glyph-name="hand-spock" horiz-adv-x="1365" d="M28.992 496.726c40.371 42.896 107.877 44.944 150.781 4.568l161.56-152.056v211.747l-104.013 457.661c-13.056 57.445 22.928 114.597 80.373 127.653 57.464 13.051 114.6-22.931 127.653-80.376l92.645-407.637h26.221l-126.837 552.091c-13.189 57.416 22.661 114.651 80.075 127.84 57.419 13.2 114.651-22.661 127.84-80.075l137.813-599.856h40.28l129.133 516.539c14.285 57.152 72.2 91.899 129.352 77.611s91.901-72.2 77.611-129.352l-116.197-464.797h29.547l82.048 344.707c13.645 57.309 71.16 92.715 128.472 79.059 57.309-13.645 92.707-71.163 79.059-128.472l-96.779-406.579c-4.423-17.809-6.962-38.255-6.963-59.293v-112.273c0-25.942-3.859-50.982-11.034-74.579l0.474 1.813-69.797-235.432c-16.109-54.344-66.040-91.619-122.72-91.619h-577.797c0 0 0 0 0 0-33.983 0-64.873 13.243-87.791 34.849l0.064-0.059-356.504 335.536c-42.899 40.376-44.941 107.883-4.568 150.781z" />
<glyph unicode="&#xf281;" glyph-name="reddit-alien" horiz-adv-x="1365" d="M1174.133 627.619c-40 0-75.2-16.533-101.067-42.4-95.2 65.867-223.467 108.267-365.6 112.8l73.867 332.8 235.2-52.8c0-57.6 46.933-104.533 104.533-104.533 58.667 0 105.867 48.267 105.867 105.867s-46.933 105.867-105.867 105.867c-41.067 0-76.533-24.8-94.133-58.667l-259.733 57.6c-13.067 3.467-25.867-5.867-29.333-18.933l-81.067-366.933c-141.067-5.867-268-48.267-363.467-114.133-25.867 26.933-62.4 43.467-102.4 43.467-148.267 0-196.8-198.933-61.067-266.933-4.8-21.067-6.933-43.467-6.933-65.867 0-223.467 251.733-404.533 560.8-404.533 310.4 0 562.133 181.067 562.133 404.533 0 22.4-2.4 45.867-8.267 66.933 133.067 68.267 84 265.867-63.467 265.867zM345.067 346.553c0 58.667 46.933 105.867 105.867 105.867 57.6 0 104.533-46.933 104.533-105.867 0-57.6-46.933-104.533-104.533-104.533-58.667-0.267-105.867 46.933-105.867 104.533zM916.533 97.219c-97.067-97.067-370.933-97.067-468 0-10.667 9.333-10.667 25.867 0 36.533 9.333 9.333 25.867 9.333 35.2 0 74.133-76 320-77.333 397.333 0 9.333 9.333 25.867 9.333 35.2 0 10.933-10.667 10.933-27.2 0.267-36.533zM914.4 241.753c-57.6 0-104.533 46.933-104.533 104.533 0 58.667 46.933 105.867 104.533 105.867 58.667 0 105.867-46.933 105.867-105.867-0.267-57.333-47.2-104.533-105.867-104.533z" />
<glyph unicode="&#xf2b3;" glyph-name="google-plus" horiz-adv-x="1323" d="M661.333 1148.953c-365.067 0-661.333-296.267-661.333-661.333s296.267-661.333 661.333-661.333 661.333 296.267 661.333 661.333-296.267 661.333-661.333 661.333zM472.8 156.953c-183.467 0-330.667 148-330.667 330.667s147.2 330.667 330.667 330.667c83.467 0 160.267-29.333 221.333-86.133l-89.6-86.933c-35.2 34.4-83.467 50.933-131.733 50.933-114.4 0-205.867-94.667-205.867-208.267s91.2-208.267 205.867-208.267c86.933 0 173.067 50.933 186.933 142.133h-186.933v113.6h311.733c3.467-18.133 5.067-36.267 5.067-55.2 0-188.8-126.667-323.2-316.8-323.2zM1086.667 440.153v-94.667h-94.667v94.667h-94.667v94.667h94.667v94.667h94.667v-94.667h93.867v-94.667h-93.867z" />
<glyph unicode="&#xf2bb;" glyph-name="address-card" horiz-adv-x="1536" d="M1408 1084.953h-1280c-70.667 0-128-57.333-128-128v-938.667c0-70.667 57.333-128 128-128h1280c70.667 0 128 57.333 128 128v938.667c0 70.667-57.333 128-128 128zM1408 18.286h-1280v938.667h1280v-938.667zM554.667 487.619c94.133 0 170.667 76.533 170.667 170.667s-76.533 170.667-170.667 170.667-170.667-76.533-170.667-170.667 76.533-170.667 170.667-170.667zM315.733 146.286h477.867c33.067 0 59.733 22.933 59.733 51.2v51.2c0 84.8-80.267 153.6-179.2 153.6-28.8 0-49.867-21.333-119.467-21.333-71.733 0-89.067 21.333-119.467 21.333-98.933 0-179.2-68.8-179.2-153.6v-51.2c0-28.267 26.667-51.2 59.733-51.2zM960 316.953h298.667c11.733 0 21.333 9.6 21.333 21.333v42.667c0 11.733-9.6 21.333-21.333 21.333h-298.667c-11.733 0-21.333-9.6-21.333-21.333v-42.667c0-11.733 9.6-21.333 21.333-21.333zM960 487.619h298.667c11.733 0 21.333 9.6 21.333 21.333v42.667c0 11.733-9.6 21.333-21.333 21.333h-298.667c-11.733 0-21.333-9.6-21.333-21.333v-42.667c0-11.733 9.6-21.333 21.333-21.333zM960 658.286h298.667c11.733 0 21.333 9.6 21.333 21.333v42.667c0 11.733-9.6 21.333-21.333 21.333h-298.667c-11.733 0-21.333-9.6-21.333-21.333v-42.667c0-11.733 9.6-21.333 21.333-21.333z" />
<glyph unicode="&#xf40a;" glyph-name="vimeo" horiz-adv-x="1195" d="M1075.2 1084.953h-955.733c-65.867 0-119.467-53.6-119.467-119.467v-955.733c0-65.867 53.6-119.467 119.467-119.467h955.733c65.867 0 119.467 53.6 119.467 119.467v955.733c0 65.867-53.6 119.467-119.467 119.467zM1005.333 688.153c-3.733-84-62.4-199.2-176-345.067-117.333-152.533-216.8-228.8-297.867-228.8-50.4 0-92.8 46.4-127.733 139.467-68 248.8-97.067 394.667-153.067 394.667-6.4 0-29.067-13.6-67.733-40.533l-40.533 52.267c99.467 87.467 194.4 184.533 253.867 189.867 67.2 6.4 108.533-39.467 124-137.867 55.2-349.867 79.733-402.667 180.267-244.267 36 57.067 55.467 100.533 58.133 130.4 9.333 88.533-69.067 82.4-122.133 59.733 42.4 138.933 123.467 206.4 243.2 202.667 88.8-2.4 130.667-60 125.6-172.533z" />
</font>
</defs>
</svg>
